<svg width="256" height="256" viewBox="0 0 256 256" fill="none" xmlns="http://www.w3.org/2000/svg">
<g clip-path="url(#clip0_79_20)">
<rect width="256" height="256" rx="76.95" fill="#41237A"/>
<path d="M132.396 143.617L139.654 211.312C140.033 214.679 137.058 217.6 133.251 217.6L122.749 217.6C118.942 217.6 115.967 214.679 116.345 211.312L123.604 143.617C123.81 141.386 125.54 139.687 127.606 139.687H128.393C130.46 139.687 132.19 141.386 132.396 143.617Z" fill="#F8F9FE"/>
<path d="M123.604 112.383L116.346 44.6875C115.967 41.321 118.942 38.3998 122.749 38.3998L133.251 38.3998C137.058 38.3998 140.033 41.321 139.655 44.6875L132.396 112.383C132.19 114.614 130.46 116.313 128.394 116.313H127.607C125.54 116.313 123.81 114.614 123.604 112.383Z" fill="#F8F9FE"/>
<path d="M143.617 123.604L211.312 116.345C214.679 115.966 217.6 118.941 217.6 122.749L217.6 133.251C217.6 137.058 214.679 140.033 211.312 139.654L143.617 132.395C141.386 132.19 139.687 130.46 139.687 128.393V127.606C139.687 125.54 141.386 123.81 143.617 123.604Z" fill="#F8F9FE"/>
<path d="M112.383 132.396L44.688 139.654C41.3215 140.033 38.4003 137.058 38.4003 133.251L38.4003 122.749C38.4003 118.942 41.3215 115.967 44.688 116.346L112.383 123.604C114.614 123.81 116.313 125.54 116.313 127.606V128.394C116.313 130.46 114.614 132.19 112.383 132.396Z" fill="#F8F9FE"/>
<path d="M141.866 135.934L194.867 178.67C197.515 180.782 197.477 184.951 194.785 187.643L187.359 195.07C184.667 197.762 180.498 197.8 178.385 195.151L135.65 142.151C134.218 140.428 134.24 138.003 135.701 136.542L136.258 135.985C137.719 134.524 140.143 134.502 141.866 135.934Z" fill="#F8F9FE"/>
<path d="M113.564 120.065L60.5637 77.3301C57.9153 75.2175 57.9533 71.0483 60.6454 68.3562L68.0716 60.93C70.7637 58.2379 74.9329 58.1999 77.0455 60.8483L119.781 113.849C121.213 115.572 121.191 117.996 119.73 119.458L119.173 120.014C117.712 121.475 115.287 121.497 113.564 120.065Z" fill="#F8F9FE"/>
<path d="M135.65 113.849L178.385 60.8483C180.498 58.2 184.667 58.2379 187.359 60.93L194.785 68.3562C197.477 71.0483 197.515 75.2175 194.867 77.3301L141.866 120.065C140.143 121.498 137.719 121.475 136.258 120.014L135.701 119.458C134.24 117.996 134.218 115.572 135.65 113.849Z" fill="#F8F9FE"/>
<path d="M119.781 142.151L77.0455 195.151C74.9329 197.8 70.7637 197.762 68.0716 195.069L60.6455 187.643C57.9533 184.951 57.9154 180.782 60.5637 178.669L113.564 135.934C115.287 134.502 117.712 134.524 119.173 135.985L119.73 136.542C121.191 138.003 121.213 140.428 119.781 142.151Z" fill="#F8F9FE"/>
</g>
<defs>
<clipPath id="clip0_79_20">
<rect width="256" height="256" fill="white"/>
</clipPath>
</defs>
</svg>
