<svg width="228" height="228" viewBox="0 0 228 228" fill="none" xmlns="http://www.w3.org/2000/svg">
<g clip-path="url(#clip0_79_63)">
<path d="M119.593 133.87L128.828 220C129.31 224.283 125.525 228 120.681 228L107.319 228C102.475 228 98.6898 224.283 99.1718 220L108.407 133.87C108.669 131.031 110.87 128.87 113.499 128.87H114.501C117.13 128.87 119.331 131.031 119.593 133.87Z" fill="#41237A"/>
<path d="M108.407 94.1304L99.1719 8.00001C98.6899 3.71672 102.475 0 107.319 0L120.681 0C125.525 0 129.31 3.71673 128.828 8.00001L119.593 94.1304C119.331 96.9689 117.13 99.1304 114.501 99.1304H113.499C110.87 99.1304 108.669 96.9689 108.407 94.1304Z" fill="#41237A"/>
<path d="M133.87 108.407L220 99.1719C224.283 98.6899 228 102.475 228 107.319L228 120.681C228 125.525 224.283 129.31 220 128.828L133.87 119.593C131.031 119.331 128.87 117.13 128.87 114.501V113.499C128.87 110.87 131.031 108.669 133.87 108.407Z" fill="#41237A"/>
<path d="M94.1304 119.593L8.00001 128.828C3.71672 129.31 0 125.525 0 120.681L0 107.319C0 102.475 3.71673 98.6899 8.00001 99.1719L94.1304 108.407C96.9689 108.669 99.1304 110.87 99.1304 113.499V114.501C99.1304 117.13 96.9689 119.331 94.1304 119.593Z" fill="#41237A"/>
<path d="M131.642 124.095L199.076 178.468C202.446 181.156 202.397 186.461 198.972 189.886L189.524 199.334C186.098 202.76 180.794 202.808 178.106 199.438L123.733 132.005C121.911 129.813 121.939 126.728 123.798 124.869L124.506 124.16C126.365 122.301 129.45 122.273 131.642 124.095Z" fill="#41237A"/>
<path d="M95.6332 103.905L28.1994 49.5318C24.8298 46.8438 24.8782 41.5393 28.3034 38.114L37.7518 28.6656C41.1771 25.2404 46.4816 25.1921 49.1696 28.5616L103.543 95.9954C105.365 98.1875 105.337 101.272 103.478 103.131L102.769 103.84C100.91 105.699 97.8253 105.727 95.6332 103.905Z" fill="#41237A"/>
<path d="M123.733 95.9954L178.106 28.5616C180.794 25.192 186.098 25.2403 189.524 28.6656L198.972 38.114C202.397 41.5393 202.446 46.8438 199.076 49.5317L131.642 103.905C129.45 105.727 126.365 105.699 124.506 103.84L123.798 103.131C121.939 101.272 121.911 98.1874 123.733 95.9954Z" fill="#41237A"/>
<path d="M103.543 132.005L49.1695 199.438C46.4816 202.808 41.177 202.76 37.7518 199.334L28.3033 189.886C24.8781 186.461 24.8298 181.156 28.1993 178.468L95.6331 124.095C97.8252 122.273 100.91 122.301 102.769 124.16L103.478 124.869C105.337 126.728 105.365 129.813 103.543 132.005Z" fill="#41237A"/>
</g>
<defs>
<clipPath id="clip0_79_63">
<rect width="228" height="228" fill="white"/>
</clipPath>
</defs>
</svg>
