<svg width="596" height="112" viewBox="0 0 596 112" fill="none" xmlns="http://www.w3.org/2000/svg">
<g clip-path="url(#clip0_65_571)">
<path d="M572.465 98.6479L565.652 81.4402H531.712L525.271 98.6479H502.232L539.02 11H559.583L596 98.6479H572.465ZM548.93 34.3975L537.782 64.4801H559.83L548.93 34.3975Z" fill="#1A1C2E"/>
<path d="M474.103 98.6479L455.151 63.8611H447.967V98.6479H427.157V11H460.602C464.813 11 468.901 11.4539 472.865 12.3618C476.911 13.1871 480.503 14.6314 483.641 16.6946C486.862 18.7579 489.422 21.4814 491.321 24.8652C493.22 28.249 494.17 32.458 494.17 37.4924C494.17 43.4347 492.56 48.4278 489.339 52.4718C486.118 56.5158 481.659 59.4044 475.961 61.1376L498.877 98.6479H474.103ZM473.236 37.8638C473.236 35.8005 472.782 34.1499 471.874 32.912C471.048 31.5915 469.933 30.6011 468.529 29.9409C467.208 29.1981 465.68 28.7029 463.946 28.4553C462.294 28.2077 460.684 28.0839 459.115 28.0839H447.843V48.5103H457.876C459.611 48.5103 461.386 48.3865 463.203 48.1389C465.019 47.8088 466.671 47.2724 468.158 46.5296C469.644 45.7868 470.841 44.7139 471.75 43.3109C472.741 41.9078 473.236 40.0922 473.236 37.8638Z" fill="#1A1C2E"/>
<path d="M406.313 65.5942C406.313 70.8762 405.404 75.7043 403.587 80.0784C401.853 84.37 399.335 88.0839 396.031 91.2201C392.728 94.2737 388.723 96.6671 384.016 98.4003C379.392 100.133 374.231 101 368.533 101C362.752 101 357.55 100.133 352.925 98.4003C348.301 96.6671 344.378 94.2737 341.158 91.2201C337.937 88.0839 335.46 84.37 333.726 80.0784C331.992 75.7043 331.124 70.8762 331.124 65.5942V11H352.182V63.8611C352.182 66.2545 352.471 68.5241 353.049 70.6699C353.71 72.8157 354.659 74.7552 355.898 76.4883C357.219 78.1389 358.912 79.4594 360.977 80.4498C363.124 81.4402 365.684 81.9353 368.657 81.9353C371.629 81.9353 374.148 81.4402 376.213 80.4498C378.36 79.4594 380.094 78.1389 381.415 76.4883C382.736 74.7552 383.686 72.8157 384.264 70.6699C384.842 68.5241 385.131 66.2545 385.131 63.8611V11H406.313V65.5942Z" fill="#1A1C2E"/>
<path d="M266.099 98.6479V11H287.404V80.2022H321.344V98.6479H266.099Z" fill="#1A1C2E"/>
<path d="M249.668 37.9876C249.668 43.1045 248.718 47.4374 246.819 50.9862C244.92 54.4525 242.36 57.2586 239.139 59.4044C235.919 61.5502 232.203 63.1183 227.991 64.1087C223.78 65.099 219.403 65.5942 214.861 65.5942H204.332V98.6479H183.151V11H215.357C220.146 11 224.605 11.4952 228.734 12.4856C232.946 13.3934 236.579 14.9202 239.635 17.066C242.773 19.1293 245.209 21.8941 246.943 25.3604C248.76 28.7442 249.668 32.9532 249.668 37.9876ZM228.487 38.1114C228.487 36.0481 228.074 34.3563 227.248 33.0358C226.422 31.7153 225.307 30.6836 223.903 29.9409C222.5 29.1981 220.889 28.7029 219.073 28.4553C217.338 28.2077 215.522 28.0839 213.622 28.0839H204.332V48.7579H213.251C215.233 48.7579 217.132 48.5928 218.949 48.2627C220.765 47.9326 222.376 47.3549 223.78 46.5296C225.266 45.7043 226.422 44.6314 227.248 43.3109C228.074 41.9078 228.487 40.1747 228.487 38.1114Z" fill="#1A1C2E"/>
<path d="M140 98.6479V11H161.305V98.6479H140Z" fill="#1A1C2E"/>
<path d="M58.7473 65.7605L63.284 108.07C63.5208 110.174 61.6614 112 59.2819 112L52.7181 112C50.3386 112 48.4792 110.174 48.716 108.07L53.2527 65.7605C53.3812 64.3662 54.4625 63.3043 55.754 63.3043H56.246C57.5375 63.3043 58.6188 64.3662 58.7473 65.7605Z" fill="#41237A"/>
<path d="M53.2527 46.2395L48.716 3.92983C48.4792 1.82576 50.3386 0 52.7181 0L59.2819 0C61.6614 0 63.5208 1.82576 63.284 3.92983L58.7473 46.2395C58.6188 47.6338 57.5375 48.6957 56.246 48.6957H55.754C54.4625 48.6957 53.3812 47.6338 53.2527 46.2395Z" fill="#41237A"/>
<path d="M65.7605 53.2527L108.07 48.716C110.174 48.4792 112 50.3386 112 52.7181L112 59.2819C112 61.6615 110.174 63.5208 108.07 63.284L65.7605 58.7473C64.3662 58.6188 63.3043 57.5375 63.3043 56.246V55.754C63.3043 54.4625 64.3662 53.3812 65.7605 53.2527Z" fill="#41237A"/>
<path d="M46.2395 58.7473L3.92983 63.284C1.82576 63.5208 0 61.6614 0 59.2819L0 52.7181C0 50.3385 1.82576 48.4792 3.92983 48.716L46.2395 53.2527C47.6338 53.3812 48.6957 54.4625 48.6957 55.754V56.246C48.6957 57.5375 47.6338 58.6188 46.2395 58.7473Z" fill="#41237A"/>
<path d="M64.6664 60.959L97.7918 87.6686C99.447 88.989 99.4233 91.5947 97.7407 93.2773L93.0994 97.9186C91.4168 99.6012 88.811 99.6249 87.4906 97.9697L60.7811 64.8444C59.886 63.7676 59.8998 62.2521 60.813 61.3389L61.161 60.991C62.0742 60.0778 63.5896 60.064 64.6664 60.959Z" fill="#41237A"/>
<path d="M46.9777 51.0409L13.8523 24.3314C12.1971 23.011 12.2208 20.4053 13.9034 18.7227L18.5447 14.0814C20.2273 12.3988 22.8331 12.375 24.1534 14.0303L50.863 47.1556C51.7581 48.2324 51.7443 49.7479 50.8311 50.6611L50.4831 51.009C49.5699 51.9222 48.0545 51.936 46.9777 51.0409Z" fill="#41237A"/>
<path d="M60.7811 47.1556L87.4907 14.0303C88.811 12.375 91.4168 12.3988 93.0994 14.0813L97.7407 18.7227C99.4233 20.4053 99.447 23.011 97.7918 24.3314L64.6664 51.0409C63.5896 51.936 62.0742 51.9222 61.161 51.009L60.813 50.6611C59.8998 49.7479 59.886 48.2324 60.7811 47.1556Z" fill="#41237A"/>
<path d="M50.863 64.8444L24.1534 97.9697C22.8331 99.625 20.2273 99.6012 18.5447 97.9186L13.9034 93.2773C12.2208 91.5947 12.1971 88.989 13.8523 87.6686L46.9777 60.959C48.0545 60.064 49.5699 60.0778 50.4831 60.991L50.8311 61.3389C51.7443 62.2521 51.7581 63.7676 50.863 64.8444Z" fill="#41237A"/>
</g>
<defs>
<clipPath id="clip0_65_571">
<rect width="596" height="112" fill="white"/>
</clipPath>
</defs>
</svg>
