<svg width="1037" height="112" viewBox="0 0 1037 112" fill="none" xmlns="http://www.w3.org/2000/svg">
<g clip-path="url(#clip0_24_825)">
<path d="M572.465 98.6479L565.652 81.4402H531.712L525.271 98.6479H502.232L539.02 11H559.583L596 98.6479H572.465ZM548.93 34.3975L537.782 64.4801H559.83L548.93 34.3975Z" fill="#1A1C2E"/>
<path d="M474.103 98.6479L455.151 63.8611H447.967V98.6479H427.157V11H460.602C464.813 11 468.901 11.4539 472.865 12.3618C476.911 13.1871 480.503 14.6314 483.641 16.6946C486.862 18.7579 489.422 21.4814 491.321 24.8652C493.22 28.249 494.17 32.458 494.17 37.4924C494.17 43.4347 492.56 48.4278 489.339 52.4718C486.118 56.5158 481.659 59.4044 475.961 61.1376L498.877 98.6479H474.103ZM473.236 37.8638C473.236 35.8005 472.782 34.1499 471.874 32.912C471.048 31.5915 469.933 30.6011 468.529 29.9409C467.208 29.1981 465.68 28.7029 463.946 28.4553C462.294 28.2077 460.684 28.0839 459.115 28.0839H447.843V48.5103H457.876C459.611 48.5103 461.386 48.3865 463.203 48.1389C465.019 47.8088 466.671 47.2724 468.158 46.5296C469.644 45.7868 470.841 44.7139 471.75 43.3109C472.741 41.9078 473.236 40.0922 473.236 37.8638Z" fill="#1A1C2E"/>
<path d="M406.313 65.5942C406.313 70.8762 405.404 75.7043 403.587 80.0784C401.853 84.37 399.335 88.0839 396.031 91.2201C392.728 94.2737 388.723 96.6671 384.016 98.4003C379.392 100.133 374.231 101 368.533 101C362.752 101 357.55 100.133 352.925 98.4003C348.301 96.6671 344.378 94.2737 341.158 91.2201C337.937 88.0839 335.46 84.37 333.726 80.0784C331.992 75.7043 331.124 70.8762 331.124 65.5942V11H352.182V63.8611C352.182 66.2545 352.471 68.5241 353.049 70.6699C353.71 72.8157 354.659 74.7552 355.898 76.4883C357.219 78.1389 358.912 79.4594 360.977 80.4498C363.124 81.4402 365.684 81.9353 368.657 81.9353C371.629 81.9353 374.148 81.4402 376.213 80.4498C378.36 79.4594 380.094 78.1389 381.415 76.4883C382.736 74.7552 383.686 72.8157 384.264 70.6699C384.842 68.5241 385.131 66.2545 385.131 63.8611V11H406.313V65.5942Z" fill="#1A1C2E"/>
<path d="M266.099 98.6479V11H287.404V80.2022H321.344V98.6479H266.099Z" fill="#1A1C2E"/>
<path d="M249.668 37.9876C249.668 43.1045 248.718 47.4374 246.819 50.9862C244.92 54.4525 242.36 57.2586 239.139 59.4044C235.919 61.5502 232.203 63.1183 227.991 64.1087C223.78 65.099 219.403 65.5942 214.861 65.5942H204.332V98.6479H183.151V11H215.357C220.146 11 224.605 11.4952 228.734 12.4856C232.946 13.3934 236.579 14.9202 239.635 17.066C242.773 19.1293 245.209 21.8941 246.943 25.3604C248.76 28.7442 249.668 32.9532 249.668 37.9876ZM228.487 38.1114C228.487 36.0481 228.074 34.3563 227.248 33.0358C226.422 31.7153 225.307 30.6836 223.903 29.9409C222.5 29.1981 220.889 28.7029 219.073 28.4553C217.338 28.2077 215.522 28.0839 213.622 28.0839H204.332V48.7579H213.251C215.233 48.7579 217.132 48.5928 218.949 48.2627C220.765 47.9326 222.376 47.3549 223.78 46.5296C225.266 45.7043 226.422 44.6314 227.248 43.3109C228.074 41.9078 228.487 40.1747 228.487 38.1114Z" fill="#1A1C2E"/>
<path d="M140 98.6479V11H161.305V98.6479H140Z" fill="#1A1C2E"/>
<path d="M58.7473 65.7605L63.284 108.07C63.5208 110.174 61.6614 112 59.2819 112L52.7181 112C50.3386 112 48.4792 110.174 48.716 108.07L53.2527 65.7605C53.3812 64.3662 54.4625 63.3043 55.754 63.3043H56.246C57.5375 63.3043 58.6188 64.3662 58.7473 65.7605Z" fill="#41237A"/>
<path d="M53.2527 46.2395L48.716 3.92983C48.4792 1.82576 50.3386 0 52.7181 0L59.2819 0C61.6614 0 63.5208 1.82576 63.284 3.92983L58.7473 46.2395C58.6188 47.6338 57.5375 48.6957 56.246 48.6957H55.754C54.4625 48.6957 53.3812 47.6338 53.2527 46.2395Z" fill="#41237A"/>
<path d="M65.7605 53.2527L108.07 48.716C110.174 48.4792 112 50.3386 112 52.7181L112 59.2819C112 61.6615 110.174 63.5208 108.07 63.284L65.7605 58.7473C64.3662 58.6188 63.3043 57.5375 63.3043 56.246V55.754C63.3043 54.4625 64.3662 53.3812 65.7605 53.2527Z" fill="#41237A"/>
<path d="M46.2395 58.7473L3.92983 63.284C1.82576 63.5208 0 61.6614 0 59.2819L0 52.7181C0 50.3385 1.82576 48.4792 3.92983 48.716L46.2395 53.2527C47.6338 53.3812 48.6957 54.4625 48.6957 55.754V56.246C48.6957 57.5375 47.6338 58.6188 46.2395 58.7473Z" fill="#41237A"/>
<path d="M64.6664 60.959L97.7918 87.6686C99.447 88.989 99.4233 91.5947 97.7407 93.2773L93.0994 97.9186C91.4168 99.6012 88.811 99.6249 87.4906 97.9697L60.7811 64.8444C59.886 63.7676 59.8998 62.2521 60.813 61.3389L61.161 60.991C62.0742 60.0778 63.5896 60.064 64.6664 60.959Z" fill="#41237A"/>
<path d="M46.9777 51.0409L13.8523 24.3314C12.1971 23.011 12.2208 20.4053 13.9034 18.7227L18.5447 14.0813C20.2273 12.3988 22.8331 12.375 24.1534 14.0303L50.863 47.1556C51.7581 48.2324 51.7443 49.7479 50.8311 50.6611L50.4831 51.009C49.5699 51.9222 48.0545 51.936 46.9777 51.0409Z" fill="#41237A"/>
<path d="M60.7811 47.1556L87.4907 14.0302C88.811 12.375 91.4168 12.3988 93.0994 14.0813L97.7407 18.7227C99.4233 20.4052 99.447 23.011 97.7918 24.3314L64.6664 51.0409C63.5896 51.936 62.0742 51.9222 61.161 51.009L60.813 50.6611C59.8998 49.7479 59.886 48.2324 60.7811 47.1556Z" fill="#41237A"/>
<path d="M50.863 64.8444L24.1534 97.9697C22.8331 99.6249 20.2273 99.6012 18.5447 97.9186L13.9034 93.2773C12.2208 91.5947 12.1971 88.989 13.8523 87.6686L46.9777 60.959C48.0545 60.064 49.5699 60.0778 50.4831 60.991L50.8311 61.3389C51.7443 62.2521 51.7581 63.7676 50.863 64.8444Z" fill="#41237A"/>
<path d="M632 103L630 103L630 9L632 9L632 103Z" fill="#1A1C2E"/>
<path d="M1030.39 100C1029.07 100 1027.8 99.7881 1026.59 99.3642C1025.39 98.9403 1024.46 98.3808 1023.8 97.6856L1024.53 96.236C1025.18 96.8803 1026.03 97.4059 1027.09 97.8128C1028.16 98.2028 1029.25 98.3978 1030.39 98.3978C1031.97 98.3978 1033.17 98.1095 1033.96 97.533C1034.75 96.9396 1035.15 96.1766 1035.15 95.2441C1035.15 94.532 1034.93 93.964 1034.49 93.5401C1034.07 93.1163 1033.55 92.7941 1032.92 92.5737C1032.3 92.3363 1031.43 92.082 1030.31 91.8107C1028.98 91.4716 1027.91 91.1495 1027.12 90.8443C1026.32 90.5222 1025.64 90.0389 1025.07 89.3946C1024.51 88.7504 1024.23 87.8772 1024.23 86.7751C1024.23 85.8765 1024.47 85.0626 1024.94 84.3336C1025.41 83.5876 1026.14 82.9941 1027.12 82.5533C1028.1 82.1125 1029.31 81.8921 1030.77 81.8921C1031.78 81.8921 1032.77 82.0362 1033.73 82.3244C1034.71 82.5957 1035.56 82.9772 1036.27 83.4689L1035.63 84.9694C1034.89 84.4777 1034.09 84.1132 1033.25 83.8758C1032.41 83.6215 1031.58 83.4943 1030.77 83.4943C1029.21 83.4943 1028.04 83.7995 1027.24 84.4099C1026.47 85.0033 1026.08 85.7748 1026.08 86.7242C1026.08 87.4363 1026.29 88.0128 1026.71 88.4536C1027.15 88.8775 1027.69 89.2081 1028.33 89.4455C1028.99 89.6659 1029.87 89.9118 1030.97 90.1831C1032.27 90.5052 1033.32 90.8273 1034.11 91.1495C1034.92 91.4547 1035.61 91.9294 1036.16 92.5737C1036.72 93.201 1037 94.0573 1037 95.1424C1037 96.041 1036.76 96.8633 1036.27 97.6093C1035.79 98.3384 1035.06 98.9234 1034.06 99.3642C1033.06 99.7881 1031.84 100 1030.39 100Z" fill="#1A1C2E"/>
<path d="M1017.95 95.0917H1008.07L1005.94 99.8476H1003.99L1012.1 82.0448H1013.95L1022.06 99.8476H1020.08L1017.95 95.0917ZM1017.27 93.5658L1013.01 84.0031L1008.75 93.5658H1017.27Z" fill="#1A1C2E"/>
<path d="M996.107 83.6725H989.874V82.0448H1004.22V83.6725H997.982V99.8476H996.107V83.6725Z" fill="#1A1C2E"/>
<path d="M981.702 100C980.385 100 979.118 99.7881 977.902 99.3642C976.702 98.9403 975.773 98.3808 975.114 97.6856L975.849 96.236C976.491 96.8803 977.344 97.4059 978.408 97.8128C979.473 98.2028 980.571 98.3978 981.702 98.3978C983.29 98.3978 984.481 98.1095 985.275 97.533C986.069 96.9396 986.466 96.1766 986.466 95.2441C986.466 94.532 986.247 93.964 985.807 93.5401C985.385 93.1163 984.861 92.7941 984.236 92.5737C983.611 92.3363 982.741 92.082 981.626 91.8107C980.292 91.4716 979.228 91.1495 978.434 90.8443C977.64 90.5222 976.956 90.0389 976.381 89.3946C975.824 88.7504 975.545 87.8772 975.545 86.7751C975.545 85.8765 975.782 85.0626 976.255 84.3336C976.728 83.5876 977.454 82.9941 978.434 82.5533C979.414 82.1125 980.63 81.8921 982.083 81.8921C983.096 81.8921 984.084 82.0362 985.047 82.3244C986.027 82.5957 986.872 82.9772 987.581 83.4689L986.948 84.9694C986.204 84.4777 985.41 84.1132 984.566 83.8758C983.721 83.6215 982.893 83.4943 982.083 83.4943C980.528 83.4943 979.354 83.7995 978.56 84.4099C977.783 85.0033 977.395 85.7748 977.395 86.7242C977.395 87.4363 977.606 88.0128 978.028 88.4536C978.468 88.8775 979.008 89.2081 979.65 89.4455C980.309 89.6659 981.187 89.9118 982.285 90.1831C983.586 90.5052 984.633 90.8273 985.427 91.1495C986.238 91.4547 986.922 91.9294 987.48 92.5737C988.037 93.201 988.316 94.0573 988.316 95.1424C988.316 96.041 988.071 96.8633 987.581 97.6093C987.108 98.3384 986.373 98.9234 985.377 99.3642C984.38 99.7881 983.155 100 981.702 100Z" fill="#1A1C2E"/>
<path d="M962.803 100C961.046 100 959.45 99.61 958.014 98.8301C956.595 98.0332 955.48 96.9481 954.669 95.5747C953.876 94.2014 953.479 92.6585 953.479 90.946C953.479 89.2336 953.876 87.6907 954.669 86.3173C955.48 84.944 956.595 83.8673 958.014 83.0874C959.45 82.2905 961.046 81.8921 962.803 81.8921C964.56 81.8921 966.139 82.282 967.542 83.062C968.961 83.8419 970.075 84.927 970.886 86.3173C971.697 87.6907 972.103 89.2336 972.103 90.946C972.103 92.6585 971.697 94.2099 970.886 95.6002C970.075 96.9735 968.961 98.0502 967.542 98.8301C966.139 99.61 964.56 100 962.803 100ZM962.803 98.3214C964.205 98.3214 965.472 98.0078 966.604 97.3804C967.736 96.7362 968.623 95.8545 969.265 94.7355C969.907 93.5995 970.227 92.3363 970.227 90.946C970.227 89.5557 969.907 88.3011 969.265 87.182C968.623 86.046 967.736 85.1644 966.604 84.537C965.472 83.8928 964.205 83.5706 962.803 83.5706C961.401 83.5706 960.126 83.8928 958.977 84.537C957.845 85.1644 956.95 86.046 956.291 87.182C955.649 88.3011 955.328 89.5557 955.328 90.946C955.328 92.3363 955.649 93.5995 956.291 94.7355C956.95 95.8545 957.845 96.7362 958.977 97.3804C960.126 98.0078 961.401 98.3214 962.803 98.3214Z" fill="#1A1C2E"/>
<path d="M942.994 82.0448C945.258 82.0448 947.031 82.5874 948.315 83.6725C949.599 84.7576 950.241 86.2497 950.241 88.1486C950.241 90.0476 949.599 91.5396 948.315 92.6248C947.031 93.6929 945.258 94.227 942.994 94.227H938.23V99.8476H936.355V82.0448H942.994ZM942.943 92.5739C944.7 92.5739 946.043 92.1924 946.972 91.4294C947.901 90.6495 948.366 89.5559 948.366 88.1486C948.366 86.7075 947.901 85.6054 946.972 84.8424C946.043 84.0625 944.7 83.6725 942.943 83.6725H938.23V92.5739H942.943Z" fill="#1A1C2E"/>
<path d="M928.809 95.0917H918.927L916.799 99.8476H914.848L922.956 82.0448H924.806L932.914 99.8476H930.938L928.809 95.0917ZM928.125 93.5658L923.868 84.0031L919.611 93.5658H928.125Z" fill="#1A1C2E"/>
<path d="M905.633 98.2199V99.8476H893.09V82.0448H905.253V83.6725H894.965V90.0052H904.138V91.6075H894.965V98.2199H905.633Z" fill="#1A1C2E"/>
<path d="M871.649 82.0447H878.87C880.746 82.0447 882.401 82.4262 883.837 83.1892C885.273 83.9352 886.388 84.9864 887.182 86.3428C887.976 87.6822 888.373 89.2167 888.373 90.9461C888.373 92.6755 887.976 94.2184 887.182 95.5748C886.388 96.9142 885.273 97.9654 883.837 98.7284C882.401 99.4744 880.746 99.8474 878.87 99.8474H871.649V82.0447ZM878.769 98.2198C880.323 98.2198 881.683 97.9146 882.849 97.3042C884.014 96.6768 884.918 95.8206 885.56 94.7355C886.202 93.6334 886.523 92.3703 886.523 90.9461C886.523 89.5218 886.202 88.2672 885.56 87.1821C884.918 86.08 884.014 85.2238 882.849 84.6134C881.683 83.986 880.323 83.6724 878.769 83.6724H873.524V98.2198H878.769Z" fill="#1A1C2E"/>
<path d="M849.083 82.0448H850.958V98.2199H860.891V99.8476H849.083V82.0448Z" fill="#1A1C2E"/>
<path d="M844.168 98.2199V99.8476H831.626V82.0448H843.788V83.6725H833.501V90.0052H842.673V91.6075H833.501V98.2199H844.168Z" fill="#1A1C2E"/>
<path d="M828.544 82.0447L820.689 99.8474H818.84L810.985 82.0447H813.012L819.802 97.5076L826.644 82.0447H828.544Z" fill="#1A1C2E"/>
<path d="M807.167 95.0916H797.285L795.157 99.8475H793.206L801.314 82.0447H803.164L811.272 99.8475H809.296L807.167 95.0916ZM806.483 93.5656L802.226 84.003L797.969 93.5656H806.483ZM804.076 77.4415H806.483L802.378 80.5951H800.604L804.076 77.4415Z" fill="#1A1C2E"/>
<path d="M784.838 100C783.52 100 782.253 99.7881 781.037 99.3642C779.837 98.9403 778.908 98.3808 778.25 97.6856L778.984 96.236C779.626 96.8803 780.479 97.4059 781.544 97.8128C782.608 98.2028 783.706 98.3978 784.838 98.3978C786.425 98.3978 787.616 98.1095 788.41 97.533C789.204 96.9396 789.601 96.1766 789.601 95.2441C789.601 94.532 789.382 93.964 788.942 93.5401C788.52 93.1163 787.997 92.7941 787.371 92.5737C786.746 92.3363 785.876 92.082 784.762 91.8107C783.427 91.4716 782.363 91.1495 781.569 90.8443C780.775 90.5222 780.091 90.0389 779.516 89.3946C778.959 88.7504 778.68 87.8772 778.68 86.7751C778.68 85.8765 778.917 85.0626 779.39 84.3336C779.863 83.5876 780.589 82.9941 781.569 82.5533C782.549 82.1125 783.765 81.8921 785.218 81.8921C786.231 81.8921 787.219 82.0362 788.182 82.3244C789.162 82.5957 790.007 82.9772 790.716 83.4689L790.083 84.9694C789.339 84.4777 788.546 84.1132 787.701 83.8758C786.856 83.6215 786.029 83.4943 785.218 83.4943C783.664 83.4943 782.49 83.7995 781.696 84.4099C780.919 85.0033 780.53 85.7748 780.53 86.7242C780.53 87.4363 780.741 88.0128 781.163 88.4536C781.603 88.8775 782.143 89.2081 782.785 89.4455C783.444 89.6659 784.322 89.9118 785.42 90.1831C786.721 90.5052 787.768 90.8273 788.562 91.1495C789.373 91.4547 790.057 91.9294 790.615 92.5737C791.172 93.201 791.451 94.0573 791.451 95.1424C791.451 96.041 791.206 96.8633 790.716 97.6093C790.243 98.3384 789.508 98.9234 788.512 99.3642C787.515 99.7881 786.29 100 784.838 100Z" fill="#1A1C2E"/>
<path d="M773.651 82.0447V99.8474H772.105L760.703 85.4018V99.8474H758.828V82.0447H760.373L771.801 96.4903V82.0447H773.651Z" fill="#1A1C2E"/>
<path d="M744.819 100C743.063 100 741.466 99.61 740.03 98.8301C738.611 98.0332 737.496 96.9481 736.686 95.5747C735.892 94.2014 735.495 92.6585 735.495 90.946C735.495 89.2336 735.892 87.6907 736.686 86.3173C737.496 84.944 738.611 83.8673 740.03 83.0874C741.466 82.2905 743.063 81.8921 744.819 81.8921C746.576 81.8921 748.156 82.282 749.558 83.062C750.977 83.8419 752.092 84.927 752.902 86.3173C753.713 87.6907 754.119 89.2336 754.119 90.946C754.119 92.6585 753.713 94.2099 752.902 95.6002C752.092 96.9735 750.977 98.0502 749.558 98.8301C748.156 99.61 746.576 100 744.819 100ZM744.819 98.3214C746.221 98.3214 747.488 98.0078 748.62 97.3804C749.752 96.7362 750.639 95.8545 751.281 94.7355C751.923 93.5995 752.244 92.3363 752.244 90.946C752.244 89.5557 751.923 88.3011 751.281 87.182C750.639 86.046 749.752 85.1644 748.62 84.537C747.488 83.8928 746.221 83.5706 744.819 83.5706C743.417 83.5706 742.142 83.8928 740.993 84.537C739.861 85.1644 738.966 86.046 738.307 87.182C737.665 88.3011 737.344 89.5557 737.344 90.946C737.344 92.3363 737.665 93.5995 738.307 94.7355C738.966 95.8545 739.861 96.7362 740.993 97.3804C742.142 98.0078 743.417 98.3214 744.819 98.3214Z" fill="#1A1C2E"/>
<path d="M725.01 82.0448C727.273 82.0448 729.047 82.5874 730.331 83.6725C731.615 84.7576 732.257 86.2497 732.257 88.1486C732.257 90.0476 731.615 91.5396 730.331 92.6248C729.047 93.6929 727.273 94.227 725.01 94.227H720.246V99.8476H718.371V82.0448H725.01ZM724.959 92.5739C726.716 92.5739 728.059 92.1924 728.988 91.4294C729.917 90.6495 730.382 89.5559 730.382 88.1486C730.382 86.7075 729.917 85.6054 728.988 84.8424C728.059 84.0625 726.716 83.6725 724.959 83.6725H720.246V92.5739H724.959Z" fill="#1A1C2E"/>
<path d="M707.166 100C705.848 100 704.581 99.7881 703.365 99.3642C702.165 98.9403 701.236 98.3808 700.578 97.6856L701.312 96.236C701.954 96.8803 702.807 97.4059 703.872 97.8128C704.936 98.2028 706.034 98.3978 707.166 98.3978C708.754 98.3978 709.944 98.1095 710.738 97.533C711.532 96.9396 711.929 96.1766 711.929 95.2441C711.929 94.532 711.71 93.964 711.271 93.5401C710.848 93.1163 710.325 92.7941 709.7 92.5737C709.075 92.3363 708.205 92.082 707.09 91.8107C705.755 91.4716 704.691 91.1495 703.897 90.8443C703.103 90.5222 702.419 90.0389 701.845 89.3946C701.287 88.7504 701.008 87.8772 701.008 86.7751C701.008 85.8765 701.245 85.0626 701.718 84.3336C702.191 83.5876 702.917 82.9941 703.897 82.5533C704.877 82.1125 706.093 81.8921 707.546 81.8921C708.559 81.8921 709.548 82.0362 710.51 82.3244C711.49 82.5957 712.335 82.9772 713.044 83.4689L712.411 84.9694C711.668 84.4777 710.874 84.1132 710.029 83.8758C709.184 83.6215 708.357 83.4943 707.546 83.4943C705.992 83.4943 704.818 83.7995 704.024 84.4099C703.247 85.0033 702.858 85.7748 702.858 86.7242C702.858 87.4363 703.069 88.0128 703.492 88.4536C703.931 88.8775 704.471 89.2081 705.113 89.4455C705.772 89.6659 706.65 89.9118 707.748 90.1831C709.049 90.5052 710.097 90.8273 710.89 91.1495C711.701 91.4547 712.385 91.9294 712.943 92.5737C713.5 93.201 713.779 94.0573 713.779 95.1424C713.779 96.041 713.534 96.8633 713.044 97.6093C712.571 98.3384 711.836 98.9234 710.84 99.3642C709.843 99.7881 708.618 100 707.166 100Z" fill="#1A1C2E"/>
<path d="M697.361 98.2199V99.8476H684.818V82.0448H696.981V83.6725H686.693V90.0052H695.866V91.6075H686.693V98.2199H697.361Z" fill="#1A1C2E"/>
<path d="M678.112 99.8476L674.058 94.1253C673.602 94.1761 673.129 94.2016 672.639 94.2016H667.875V99.8476H666V82.0448H672.639C674.902 82.0448 676.676 82.5874 677.96 83.6725C679.244 84.7576 679.886 86.2497 679.886 88.1486C679.886 89.5389 679.531 90.7173 678.821 91.6838C678.129 92.6332 677.132 93.3199 675.831 93.7438L680.164 99.8476H678.112ZM672.588 92.5993C674.345 92.5993 675.688 92.2094 676.617 91.4294C677.546 90.6495 678.011 89.5559 678.011 88.1486C678.011 86.7075 677.546 85.6054 676.617 84.8424C675.688 84.0625 674.345 83.6725 672.588 83.6725H667.875V92.5993H672.588Z" fill="#1A1C2E"/>
<path d="M963.062 67.2287C961.305 67.2287 959.709 66.8388 958.273 66.0588C956.854 65.2619 955.739 64.1768 954.928 62.8035C954.135 61.4301 953.738 59.8872 953.738 58.1748C953.738 56.4623 954.135 54.9194 954.928 53.546C955.739 52.1727 956.854 51.096 958.273 50.3161C959.709 49.5192 961.305 49.1208 963.062 49.1208C964.819 49.1208 966.399 49.5108 967.801 50.2907C969.22 51.0706 970.334 52.1557 971.145 53.546C971.956 54.9194 972.362 56.4623 972.362 58.1748C972.362 59.8872 971.956 61.4386 971.145 62.8289C970.334 64.2023 969.22 65.2789 967.801 66.0588C966.399 66.8388 964.819 67.2287 963.062 67.2287ZM963.062 65.5502C964.464 65.5502 965.731 65.2365 966.863 64.6092C967.995 63.9649 968.882 63.0832 969.524 61.9642C970.166 60.8282 970.487 59.5651 970.487 58.1748C970.487 56.7844 970.166 55.5298 969.524 54.4107C968.882 53.2748 967.995 52.3931 966.863 51.7658C965.731 51.1215 964.464 50.7993 963.062 50.7993C961.66 50.7993 960.385 51.1215 959.236 51.7658C958.104 52.3931 957.209 53.2748 956.55 54.4107C955.908 55.5298 955.587 56.7844 955.587 58.1748C955.587 59.5651 955.908 60.8282 956.55 61.9642C957.209 63.0832 958.104 63.9649 959.236 64.6092C960.385 65.2365 961.66 65.5502 963.062 65.5502Z" fill="#1A1C2E"/>
<path d="M944.103 67.2287C942.785 67.2287 941.518 67.0167 940.302 66.5928C939.103 66.169 938.174 65.6095 937.515 64.9143L938.25 63.4647C938.892 64.1089 939.745 64.6345 940.809 65.0415C941.873 65.4314 942.971 65.6264 944.103 65.6264C945.691 65.6264 946.882 65.3382 947.676 64.7617C948.47 64.1683 948.867 63.4053 948.867 62.4728C948.867 61.7607 948.647 61.1927 948.208 60.7688C947.786 60.3449 947.262 60.0228 946.637 59.8024C946.012 59.565 945.142 59.3107 944.027 59.0394C942.692 58.7003 941.628 58.3782 940.834 58.073C940.04 57.7508 939.356 57.2676 938.782 56.6233C938.224 55.979 937.946 55.1058 937.946 54.0038C937.946 53.1051 938.182 52.2913 938.655 51.5622C939.128 50.8162 939.854 50.2228 940.834 49.782C941.814 49.3411 943.03 49.1207 944.483 49.1207C945.497 49.1207 946.485 49.2648 947.448 49.5531C948.427 49.8244 949.272 50.2058 949.982 50.6975L949.348 52.1981C948.605 51.7064 947.811 51.3418 946.966 51.1045C946.122 50.8501 945.294 50.723 944.483 50.723C942.929 50.723 941.755 51.0282 940.961 51.6385C940.184 52.232 939.795 53.0034 939.795 53.9529C939.795 54.665 940.007 55.2415 940.429 55.6823C940.868 56.1062 941.409 56.4368 942.051 56.6742C942.709 56.8946 943.588 57.1404 944.686 57.4117C945.986 57.7339 947.034 58.056 947.828 58.3782C948.639 58.6833 949.323 59.1581 949.88 59.8024C950.438 60.4297 950.716 61.2859 950.716 62.3711C950.716 63.2697 950.471 64.092 949.982 64.838C949.509 65.5671 948.774 66.152 947.777 66.5928C946.78 67.0167 945.556 67.2287 944.103 67.2287Z" fill="#1A1C2E"/>
<path d="M925.783 67.2288C923.486 67.2288 921.695 66.5676 920.411 65.2451C919.128 63.9226 918.486 61.9982 918.486 59.4719V49.2735H920.361V59.3956C920.361 61.4641 920.825 63.007 921.754 64.0243C922.684 65.0416 924.026 65.5503 925.783 65.5503C927.557 65.5503 928.908 65.0416 929.838 64.0243C930.767 63.007 931.231 61.4641 931.231 59.3956V49.2735H933.056V59.4719C933.056 61.9982 932.414 63.9226 931.13 65.2451C929.863 66.5676 928.081 67.2288 925.783 67.2288Z" fill="#1A1C2E"/>
<path d="M906.585 65.4486V67.0762H894.042V49.2735H906.205V50.9012H895.917V57.2339H905.09V58.8361H895.917V65.4486H906.585Z" fill="#1A1C2E"/>
<path d="M881.989 65.4486V67.0762H869.447V49.2735H881.609V50.9012H871.322V57.2339H880.494V58.8361H871.322V65.4486H881.989Z" fill="#1A1C2E"/>
<path d="M848.006 49.2735H855.227C857.102 49.2735 858.758 49.655 860.194 50.418C861.63 51.164 862.745 52.2152 863.539 53.5716C864.332 54.911 864.729 56.4455 864.729 58.1749C864.729 59.9043 864.332 61.4472 863.539 62.8036C862.745 64.143 861.63 65.1942 860.194 65.9572C858.758 66.7032 857.102 67.0762 855.227 67.0762H848.006V49.2735ZM855.126 65.4486C856.68 65.4486 858.04 65.1434 859.206 64.533C860.371 63.9057 861.275 63.0494 861.917 61.9643C862.559 60.8622 862.88 59.5991 862.88 58.1749C862.88 56.7506 862.559 55.496 861.917 54.4109C861.275 53.3088 860.371 52.4526 859.206 51.8422C858.04 51.2148 856.68 50.9012 855.126 50.9012H849.881V65.4486H855.126Z" fill="#1A1C2E"/>
<path d="M840.46 62.3204H830.578L828.449 67.0762H826.498L834.607 49.2735H836.457L844.565 67.0762H842.589L840.46 62.3204ZM839.776 60.7944L835.519 51.2318L831.262 60.7944H839.776Z" fill="#1A1C2E"/>
<path d="M808.143 49.2737H815.364C817.24 49.2737 818.895 49.6552 820.331 50.4182C821.767 51.1642 822.882 52.2154 823.676 53.5718C824.47 54.9113 824.866 56.4457 824.866 58.1751C824.866 59.9045 824.47 61.4474 823.676 62.8038C822.882 64.1433 821.767 65.1945 820.331 65.9574C818.895 66.7035 817.24 67.0765 815.364 67.0765H808.143V49.2737ZM815.263 65.4488C816.817 65.4488 818.177 65.1436 819.343 64.5332C820.508 63.9059 821.412 63.0497 822.054 61.9645C822.696 60.8625 823.017 59.5993 823.017 58.1751C823.017 56.7509 822.696 55.4962 822.054 54.4111C821.412 53.309 820.508 52.4528 819.343 51.8424C818.177 51.2151 816.817 50.9014 815.263 50.9014H810.018V65.4488H815.263Z" fill="#1A1C2E"/>
<path d="M799.99 49.2735H801.864V67.0762H799.99V49.2735Z" fill="#1A1C2E"/>
<path d="M784.562 49.2735H786.437V65.4486H796.37V67.0762H784.562V49.2735Z" fill="#1A1C2E"/>
<path d="M777.016 62.3206H767.134L765.006 67.0765H763.054L771.163 49.2737H773.013L781.121 67.0765H779.145L777.016 62.3206ZM776.332 60.7946L772.075 51.232L767.818 60.7946H776.332Z" fill="#1A1C2E"/>
<path d="M758.28 58.1747H760.079V64.9652C759.251 65.6942 758.271 66.2537 757.139 66.6437C756.008 67.0337 754.817 67.2287 753.567 67.2287C751.793 67.2287 750.197 66.8387 748.778 66.0588C747.359 65.2788 746.244 64.2022 745.433 62.8288C744.622 61.4385 744.217 59.8871 744.217 58.1747C744.217 56.4622 744.622 54.9193 745.433 53.546C746.244 52.1557 747.359 51.0706 748.778 50.2906C750.197 49.5107 751.801 49.1207 753.592 49.1207C754.943 49.1207 756.185 49.3411 757.317 49.782C758.449 50.2058 759.403 50.8417 760.18 51.6894L759.014 52.8847C757.612 51.4944 755.83 50.7993 753.668 50.7993C752.232 50.7993 750.931 51.1214 749.766 51.7657C748.617 52.393 747.713 53.2747 747.055 54.4107C746.396 55.5297 746.066 56.7844 746.066 58.1747C746.066 59.565 746.396 60.8197 747.055 61.9387C747.713 63.0577 748.617 63.9394 749.766 64.5837C750.914 65.228 752.207 65.5501 753.643 65.5501C755.467 65.5501 757.013 65.0923 758.28 64.1768V58.1747Z" fill="#1A1C2E"/>
<path d="M740.972 65.4486V67.0762H728.43V49.2735H740.592V50.9012H730.305V57.2339H739.477V58.8361H730.305V65.4486H740.972Z" fill="#1A1C2E"/>
<path d="M713.002 49.2735H714.877V65.4486H724.81V67.0762H713.002V49.2735Z" fill="#1A1C2E"/>
<path d="M698.317 62.3204H688.435L686.306 67.0762H684.355L692.464 49.2735H694.313L702.422 67.0762H700.445L698.317 62.3204ZM697.633 60.7944L693.376 51.2318L689.119 60.7944H697.633Z" fill="#1A1C2E"/>
<path d="M666 49.2735H673.222C675.097 49.2735 676.752 49.655 678.188 50.418C679.624 51.164 680.739 52.2152 681.533 53.5716C682.327 54.911 682.724 56.4455 682.724 58.1749C682.724 59.9043 682.327 61.4472 681.533 62.8036C680.739 64.143 679.624 65.1942 678.188 65.9572C676.752 66.7032 675.097 67.0762 673.222 67.0762H666V49.2735ZM673.12 65.4486C674.674 65.4486 676.034 65.1434 677.2 64.533C678.365 63.9057 679.269 63.0494 679.911 61.9643C680.553 60.8622 680.874 59.5991 680.874 58.1749C680.874 56.7506 680.553 55.496 679.911 54.4109C679.269 53.3088 678.365 52.4526 677.2 51.8422C676.034 51.2148 674.674 50.9012 673.12 50.9012H667.875V65.4486H673.12Z" fill="#1A1C2E"/>
<path d="M1008.96 34.4568C1007.21 34.4568 1005.61 34.0669 1004.17 33.2869C1002.76 32.4901 1001.64 31.4049 1000.83 30.0316C1000.04 28.6582 999.639 27.1153 999.639 25.4029C999.639 23.6904 1000.04 22.1475 1000.83 20.7742C1001.64 19.4008 1002.76 18.3242 1004.17 17.5442C1005.61 16.7474 1007.21 16.3489 1008.96 16.3489C1010.72 16.3489 1012.3 16.7389 1013.7 17.5188C1015.12 18.2987 1016.24 19.3839 1017.05 20.7742C1017.86 22.1475 1018.26 23.6904 1018.26 25.4029C1018.26 27.1153 1017.86 28.6667 1017.05 30.057C1016.24 31.4304 1015.12 32.507 1013.7 33.2869C1012.3 34.0669 1010.72 34.4568 1008.96 34.4568ZM1008.96 32.7783C1010.37 32.7783 1011.63 32.4646 1012.76 31.8373C1013.9 31.193 1014.78 30.3113 1015.42 29.1923C1016.07 28.0563 1016.39 26.7932 1016.39 25.4029C1016.39 24.0126 1016.07 22.7579 1015.42 21.6389C1014.78 20.5029 1013.9 19.6212 1012.76 18.9939C1011.63 18.3496 1010.37 18.0275 1008.96 18.0275C1007.56 18.0275 1006.29 18.3496 1005.14 18.9939C1004.01 19.6212 1003.11 20.5029 1002.45 21.6389C1001.81 22.7579 1001.49 24.0126 1001.49 25.4029C1001.49 26.7932 1001.81 28.0563 1002.45 29.1923C1003.11 30.3113 1004.01 31.193 1005.14 31.8373C1006.29 32.4646 1007.56 32.7783 1008.96 32.7783Z" fill="#1A1C2E"/>
<path d="M993.911 29.5484H984.029L981.9 34.3043H979.949L988.058 16.5015H989.907L998.016 34.3043H996.039L993.911 29.5484ZM993.227 28.0225L988.97 18.4599L984.713 28.0225H993.227ZM990.718 14.8993C990.33 14.8993 989.983 14.8145 989.679 14.645C989.375 14.4585 989.046 14.2041 988.691 13.882C988.387 13.6277 988.142 13.4497 987.956 13.3479C987.787 13.2292 987.602 13.1699 987.399 13.1699C987.01 13.1699 986.698 13.314 986.461 13.6022C986.225 13.8905 986.098 14.2889 986.081 14.7976H984.992C985.025 13.9498 985.245 13.2716 985.65 12.763C986.056 12.2543 986.596 12 987.272 12C987.661 12 987.999 12.0848 988.286 12.2543C988.59 12.4239 988.936 12.6782 989.325 13.0173C989.595 13.2547 989.823 13.4327 990.009 13.5514C990.195 13.6701 990.389 13.7294 990.592 13.7294C990.963 13.7294 991.267 13.5938 991.504 13.3225C991.74 13.0343 991.875 12.6443 991.909 12.1526H992.999C992.965 12.9834 992.745 13.6531 992.34 14.1618C991.934 14.6535 991.394 14.8993 990.718 14.8993Z" fill="#1A1C2E"/>
<path d="M972.217 34.4568C970.46 34.4568 968.872 34.0669 967.453 33.2869C966.051 32.507 964.945 31.4304 964.134 30.057C963.34 28.6667 962.943 27.1153 962.943 25.4029C962.943 23.6904 963.34 22.1475 964.134 20.7742C964.945 19.3839 966.06 18.2987 967.479 17.5188C968.898 16.7389 970.486 16.3489 972.242 16.3489C973.56 16.3489 974.776 16.5693 975.891 17.0102C977.006 17.451 977.952 18.0953 978.729 18.943L977.538 20.1383C976.153 18.7311 974.405 18.0275 972.293 18.0275C970.891 18.0275 969.616 18.3496 968.467 18.9939C967.318 19.6382 966.414 20.5198 965.756 21.6389C965.114 22.7579 964.793 24.0126 964.793 25.4029C964.793 26.7932 965.114 28.0479 965.756 29.1669C966.414 30.2859 967.318 31.1676 968.467 31.8119C969.616 32.4562 970.891 32.7783 972.293 32.7783C974.421 32.7783 976.17 32.0662 977.538 30.642L978.729 31.8373C977.952 32.685 976.998 33.3378 975.866 33.7956C974.751 34.2364 973.535 34.4568 972.217 34.4568ZM971.305 39.8994C970.477 39.8994 969.768 39.7044 969.176 39.3144L969.607 38.348C970.097 38.6702 970.654 38.8312 971.279 38.8312C971.786 38.8312 972.175 38.7295 972.445 38.526C972.715 38.3226 972.85 38.0259 972.85 37.6359C972.85 37.2798 972.715 36.9916 972.445 36.7712C972.192 36.5677 971.803 36.466 971.279 36.466H970.697L971.305 34.1516H972.394L972.014 35.6267C972.707 35.6946 973.239 35.9065 973.611 36.2625C973.982 36.6356 974.168 37.1103 974.168 37.6868C974.168 38.365 973.906 38.899 973.383 39.289C972.859 39.6959 972.166 39.8994 971.305 39.8994Z" fill="#1A1C2E"/>
<path d="M950.505 34.4568C948.748 34.4568 947.151 34.0669 945.716 33.2869C944.297 32.4901 943.182 31.4049 942.371 30.0316C941.577 28.6582 941.18 27.1153 941.18 25.4029C941.18 23.6904 941.577 22.1475 942.371 20.7742C943.182 19.4008 944.297 18.3242 945.716 17.5442C947.151 16.7474 948.748 16.3489 950.505 16.3489C952.261 16.3489 953.841 16.7389 955.243 17.5188C956.662 18.2987 957.777 19.3839 958.588 20.7742C959.399 22.1475 959.804 23.6904 959.804 25.4029C959.804 27.1153 959.399 28.6667 958.588 30.057C957.777 31.4304 956.662 32.507 955.243 33.2869C953.841 34.0669 952.261 34.4568 950.505 34.4568ZM950.505 32.7783C951.907 32.7783 953.174 32.4646 954.305 31.8373C955.437 31.193 956.324 30.3113 956.966 29.1923C957.608 28.0563 957.929 26.7932 957.929 25.4029C957.929 24.0126 957.608 22.7579 956.966 21.6389C956.324 20.5029 955.437 19.6212 954.305 18.9939C953.174 18.3496 951.907 18.0275 950.505 18.0275C949.103 18.0275 947.827 18.3496 946.678 18.9939C945.547 19.6212 944.651 20.5029 943.993 21.6389C943.351 22.7579 943.03 24.0126 943.03 25.4029C943.03 26.7932 943.351 28.0563 943.993 29.1923C944.651 30.3113 945.547 31.193 946.678 31.8373C947.827 32.4646 949.103 32.7783 950.505 32.7783Z" fill="#1A1C2E"/>
<path d="M936.465 16.5017V34.3045H934.666V20.0623L927.698 32.041H926.811L919.843 20.1386V34.3045H918.044V16.5017H919.589L927.292 29.7012L934.919 16.5017H936.465Z" fill="#1A1C2E"/>
<path d="M904.035 34.4568C902.278 34.4568 900.682 34.0669 899.246 33.2869C897.827 32.4901 896.712 31.4049 895.901 30.0316C895.107 28.6582 894.71 27.1153 894.71 25.4029C894.71 23.6904 895.107 22.1475 895.901 20.7742C896.712 19.4008 897.827 18.3242 899.246 17.5442C900.682 16.7474 902.278 16.3489 904.035 16.3489C905.792 16.3489 907.371 16.7389 908.773 17.5188C910.192 18.2987 911.307 19.3839 912.118 20.7742C912.929 22.1475 913.334 23.6904 913.334 25.4029C913.334 27.1153 912.929 28.6667 912.118 30.057C911.307 31.4304 910.192 32.507 908.773 33.2869C907.371 34.0669 905.792 34.4568 904.035 34.4568ZM904.035 32.7783C905.437 32.7783 906.704 32.4646 907.836 31.8373C908.967 31.193 909.854 30.3113 910.496 29.1923C911.138 28.0563 911.459 26.7932 911.459 25.4029C911.459 24.0126 911.138 22.7579 910.496 21.6389C909.854 20.5029 908.967 19.6212 907.836 18.9939C906.704 18.3496 905.437 18.0275 904.035 18.0275C902.633 18.0275 901.357 18.3496 900.209 18.9939C899.077 19.6212 898.181 20.5029 897.523 21.6389C896.881 22.7579 896.56 24.0126 896.56 25.4029C896.56 26.7932 896.881 28.0563 897.523 29.1923C898.181 30.3113 899.077 31.193 900.209 31.8373C901.357 32.4646 902.633 32.7783 904.035 32.7783Z" fill="#1A1C2E"/>
<path d="M889.575 34.3045L885.521 28.5821C885.065 28.633 884.592 28.6584 884.102 28.6584H879.338V34.3045H877.463V16.5017H884.102C886.365 16.5017 888.139 17.0443 889.423 18.1294C890.707 19.2145 891.349 20.7065 891.349 22.6055C891.349 23.9958 890.994 25.1742 890.284 26.1406C889.592 27.0901 888.595 27.7768 887.294 28.2007L891.627 34.3045H889.575ZM884.051 27.0562C885.808 27.0562 887.151 26.6662 888.08 25.8863C889.009 25.1064 889.473 24.0128 889.473 22.6055C889.473 21.1643 889.009 20.0623 888.08 19.2993C887.151 18.5194 885.808 18.1294 884.051 18.1294H879.338V27.0562H884.051Z" fill="#1A1C2E"/>
<path d="M865.655 16.5017C867.919 16.5017 869.692 17.0443 870.976 18.1294C872.26 19.2145 872.902 20.7065 872.902 22.6055C872.902 24.5045 872.26 25.9965 870.976 27.0816C869.692 28.1498 867.919 28.6839 865.655 28.6839H860.891V34.3045H859.016V16.5017H865.655ZM865.604 27.0308C867.361 27.0308 868.704 26.6493 869.633 25.8863C870.562 25.1064 871.027 24.0128 871.027 22.6055C871.027 21.1643 870.562 20.0623 869.633 19.2993C868.704 18.5194 867.361 18.1294 865.604 18.1294H860.891V27.0308H865.604Z" fill="#1A1C2E"/>
<path d="M846.963 32.6768V34.3045H834.421V16.5017H846.583V18.1294H836.296V24.4621H845.468V26.0643H836.296V32.6768H846.963Z" fill="#1A1C2E"/>
<path d="M812.98 16.5017H820.201C822.076 16.5017 823.732 16.8832 825.168 17.6462C826.604 18.3922 827.718 19.4434 828.512 20.7998C829.306 22.1392 829.703 23.6737 829.703 25.4031C829.703 27.1325 829.306 28.6754 828.512 30.0318C827.718 31.3712 826.604 32.4224 825.168 33.1854C823.732 33.9314 822.076 34.3045 820.201 34.3045H812.98V16.5017ZM820.1 32.6768C821.654 32.6768 823.014 32.3716 824.179 31.7612C825.345 31.1339 826.249 30.2776 826.891 29.1925C827.533 28.0904 827.854 26.8273 827.854 25.4031C827.854 23.9789 827.533 22.7242 826.891 21.6391C826.249 20.537 825.345 19.6808 824.179 19.0704C823.014 18.4431 821.654 18.1294 820.1 18.1294H814.855V32.6768H820.1Z" fill="#1A1C2E"/>
<path d="M791.832 34.4568C790.076 34.4568 788.479 34.0669 787.043 33.2869C785.624 32.4901 784.51 31.4049 783.699 30.0316C782.905 28.6582 782.508 27.1153 782.508 25.4029C782.508 23.6904 782.905 22.1475 783.699 20.7742C784.51 19.4008 785.624 18.3242 787.043 17.5442C788.479 16.7474 790.076 16.3489 791.832 16.3489C793.589 16.3489 795.169 16.7389 796.571 17.5188C797.99 18.2987 799.105 19.3839 799.915 20.7742C800.726 22.1475 801.132 23.6904 801.132 25.4029C801.132 27.1153 800.726 28.6667 799.915 30.057C799.105 31.4304 797.99 32.507 796.571 33.2869C795.169 34.0669 793.589 34.4568 791.832 34.4568ZM791.832 32.7783C793.235 32.7783 794.501 32.4646 795.633 31.8373C796.765 31.193 797.652 30.3113 798.294 29.1923C798.936 28.0563 799.257 26.7932 799.257 25.4029C799.257 24.0126 798.936 22.7579 798.294 21.6389C797.652 20.5029 796.765 19.6212 795.633 18.9939C794.501 18.3496 793.235 18.0275 791.832 18.0275C790.43 18.0275 789.155 18.3496 788.006 18.9939C786.874 19.6212 785.979 20.5029 785.32 21.6389C784.678 22.7579 784.357 24.0126 784.357 25.4029C784.357 26.7932 784.678 28.0563 785.32 29.1923C785.979 30.3113 786.874 31.193 788.006 31.8373C789.155 32.4646 790.43 32.7783 791.832 32.7783Z" fill="#1A1C2E"/>
<path d="M772.716 18.1294H766.482V16.5017H780.824V18.1294H774.591V34.3045H772.716V18.1294Z" fill="#1A1C2E"/>
<path d="M756.186 34.457C753.889 34.457 752.098 33.7958 750.814 32.4733C749.531 31.1508 748.889 29.2264 748.889 26.7001V16.5017H750.764V26.6238C750.764 28.6923 751.228 30.2353 752.157 31.2526C753.087 32.2699 754.429 32.7785 756.186 32.7785C757.96 32.7785 759.311 32.2699 760.241 31.2526C761.17 30.2353 761.634 28.6923 761.634 26.6238V16.5017H763.459V26.7001C763.459 29.2264 762.817 31.1508 761.533 32.4733C760.266 33.7958 758.484 34.457 756.186 34.457Z" fill="#1A1C2E"/>
<path d="M737.777 18.1294H731.544V16.5017H745.886V18.1294H739.652V34.3045H737.777V18.1294Z" fill="#1A1C2E"/>
<path d="M726.178 16.5017H728.052V34.3045H726.178V16.5017Z" fill="#1A1C2E"/>
<path d="M714.567 18.1294H708.334V16.5017H722.676V18.1294H716.442V34.3045H714.567V18.1294Z" fill="#1A1C2E"/>
<path d="M700.163 34.4568C698.845 34.4568 697.578 34.2449 696.362 33.821C695.163 33.3972 694.234 32.8376 693.575 32.1425L694.31 30.6928C694.951 31.3371 695.805 31.8627 696.869 32.2696C697.933 32.6596 699.031 32.8546 700.163 32.8546C701.751 32.8546 702.942 32.5664 703.736 31.9899C704.53 31.3965 704.926 30.6335 704.926 29.701C704.926 28.9889 704.707 28.4209 704.268 27.997C703.845 27.5731 703.322 27.251 702.697 27.0306C702.072 26.7932 701.202 26.5389 700.087 26.2676C698.752 25.9285 697.688 25.6063 696.894 25.3011C696.1 24.979 695.416 24.4958 694.842 23.8515C694.284 23.2072 694.005 22.334 694.005 21.2319C694.005 20.3333 694.242 19.5195 694.715 18.7904C695.188 18.0444 695.914 17.451 696.894 17.0102C697.874 16.5693 699.09 16.3489 700.543 16.3489C701.556 16.3489 702.545 16.493 703.508 16.7813C704.487 17.0525 705.332 17.434 706.041 17.9257L705.408 19.4262C704.665 18.9345 703.871 18.57 703.026 18.3326C702.181 18.0783 701.354 17.9512 700.543 17.9512C698.989 17.9512 697.815 18.2563 697.021 18.8667C696.244 19.4601 695.855 20.2316 695.855 21.1811C695.855 21.8932 696.066 22.4697 696.489 22.9105C696.928 23.3344 697.468 23.665 698.11 23.9024C698.769 24.1228 699.648 24.3686 700.746 24.6399C702.046 24.962 703.094 25.2842 703.888 25.6063C704.698 25.9115 705.383 26.3863 705.94 27.0306C706.497 27.6579 706.776 28.5141 706.776 29.5992C706.776 30.4978 706.531 31.3202 706.041 32.0662C705.568 32.7952 704.834 33.3802 703.837 33.821C702.84 34.2449 701.616 34.4568 700.163 34.4568Z" fill="#1A1C2E"/>
<path d="M688.976 16.5017V34.3045H687.431L676.028 19.8588V34.3045H674.153V16.5017H675.699L687.126 30.9474V16.5017H688.976Z" fill="#1A1C2E"/>
<path d="M666 16.5017H667.875V34.3045H666V16.5017Z" fill="#1A1C2E"/>
</g>
<defs>
<clipPath id="clip0_24_825">
<rect width="1037" height="112" fill="white"/>
</clipPath>
</defs>
</svg>
